<svg width="26" height="19" fill="none" xmlns="http://www.w3.org/2000/svg"><path d="M20.304 9.62H25M1 8.57v8.381C1 17.531 1.467 18 2.043 18H4.13c.577 0 1.044-.469 1.044-1.048v-1.095l15.652.048v1.047c0 .579.467 1.048 1.044 1.048h2.086c.577 0 1.044-.469 1.044-1.048v-8.38l-2.087-2.096c-.69-1.27-1.243-2.238-1.66-2.905-.417-.666-.907-1.428-1.47-2.285A81.527 81.527 0 0013.013 1c-2.228 0-4.493.095-6.796.286-.562.857-1.053 1.619-1.47 2.285-.417.667-.97 1.635-1.66 2.905L1 8.571zm6.26 2.096l1.044-1.048h9.392l1.043 1.048c-.664 2.095-1.186 3.143-1.565 3.143H8.826c-.38 0-.901-1.048-1.565-3.143zm-4.173-4.19h19.826H3.087zM1 9.618h4.696H1z" stroke="#fff"/></svg>